<svg xmlns="http://www.w3.org/2000/svg" viewBox="0 0 48 48" width="64" height="64"><path d="M46.568,6.089c-15.204,-8.045 -30.409,10.008 -45.613,1.412c-0.527,-0.298 -0.955,-0.149 -0.955,0.38l0,32.238c0,0.528 0.428,1.234 0.955,1.531c15.363,8.686 30.727,-9.837 46.09,-1.151c0.527,0.298 0.955,0.149 0.955,-0.38l0,-32.238c0,-0.527 -0.428,-1.234 -0.955,-1.531c-0.159,-0.09 -0.318,-0.177 -0.477,-0.261Z" style="fill:#4d4d4d;fill-rule:nonzero;"/><path d="M47.045,39.544c-5.416,-7.183 -15.024,-10.941 -24.304,-15.044c8.309,-7.613 16.907,-15.361 24.304,-17.195l0,32.239Z" style="fill:#fff;fill-rule:nonzero;"/><path d="M22.741,24.5c9.28,4.103 18.888,7.861 24.304,15.044c-0.234,0.148 -3.172,-2.152 -7.462,-2.327c-4.292,-0.453 -9.937,1.22 -15.583,2.895c-5.645,1.676 -11.291,3.357 -15.583,2.907c-4.181,-0.167 -7.077,-2.356 -7.438,-2.331c6.118,-1.735 13.808,-8.9 21.762,-16.188Z" style="fill:#d23;fill-rule:nonzero;"/><path d="M0.955,8.456c0.234,-0.117 3.202,2.165 7.522,2.325c4.32,0.437 9.992,-1.249 15.635,-2.917c5.643,-1.673 11.257,-3.334 15.46,-2.893c4.203,0.159 6.996,2.42 6.996,2.073c0,0 0.238,0.125 0.477,0.261l-0.17,0.043c-7.359,1.909 -15.889,9.597 -24.134,17.152c-8.886,-3.928 -17.47,-8.173 -21.786,-16.044l0,0Z" style="fill:#028;fill-rule:nonzero;"/><path d="M0.955,8.456c4.316,7.871 12.9,12.116 21.786,16.044c-7.954,7.288 -15.644,14.453 -21.762,16.188c-0.007,0.001 -0.013,0.002 -0.018,0.004l-0.006,0.003l0,-32.239Z" style="fill:#fd0;fill-rule:nonzero;"/><path d="M46.567,38.805c-15.045,-7.96 -30.09,9.633 -45.134,1.674l0,-31.284c15.044,7.959 30.089,-9.633 45.134,-1.673l0,31.283Z" style="fill:url(#_Linear1);fill-rule:nonzero;"/><defs><linearGradient id="_Linear1" x1="0" y1="0" x2="1" y2="0" gradientUnits="userSpaceOnUse" gradientTransform="matrix(53.4788,2.93942e-05,-2.93942e-05,53.4788,1.43253,24)"><stop offset="0" style="stop-color:#fff;stop-opacity:0.67"/><stop offset="0.24" style="stop-color:#d7d7d7;stop-opacity:0.22"/><stop offset="0.46" style="stop-color:#4d4d4d;stop-opacity:0"/><stop offset="0.72" style="stop-color:#fff;stop-opacity:0.51"/><stop offset="0.87" style="stop-color:#f2f2f2;stop-opacity:0.4"/><stop offset="1" style="stop-color:#fff;stop-opacity:0.62"/></linearGradient></defs></svg>